<?xml version="1.0" encoding="utf-8"?>
<!DOCTYPE svg PUBLIC "-//W3C//DTD SVG 1.0//EN" "http://www.w3.org/TR/2001/REC-SVG-20010904/DTD/svg10.dtd">
<svg version="1.0" xmlns="http://www.w3.org/2000/svg" width="709px" height="709px" viewBox="0 0 709 709" preserveAspectRatio="xMidYMid meet">
 <g fill="#9f660f">
  <path d="M327 566.65 c-7 -1.05 -11.20 -1.75 -13.35 -2.20 l-2.65 -0.50 0 -1.95 c0 -1.10 0.70 -5.15 1.50 -9.05 0.85 -3.90 1.35 -7.30 1.15 -7.45 -0.20 -0.20 -2.55 -0.90 -5.15 -1.50 -9.90 -2.35 -25.90 -8.05 -34.95 -12.45 -2.35 -1.15 -4.40 -1.90 -4.60 -1.70 -0.20 0.25 -1.70 3 -3.35 6.15 -2.60 5 -2.95 6 -2.75 7.90 l0.25 2.10 -1.80 0 c-1 0 -1.80 -0.20 -1.80 -0.50 0 -0.25 -0.30 -0.50 -0.70 -0.50 -0.70 0 -9.25 -4.65 -14.40 -7.80 -3.60 -2.20 -3.40 -3.40 1.80 -11.70 l4.20 -6.65 -2.55 -1.75 c-10.65 -7.20 -18.20 -13.45 -27.70 -22.75 l-6.05 -6 -1.50 1.20 c-0.80 0.65 -3.65 3.20 -6.25 5.60 -6.65 6.10 -6.35 6.20 -13.95 -2.90 -4.60 -5.50 -5.85 -7.35 -5.90 -8.50 0 -1.35 0.70 -2.05 6.75 -6.65 4.25 -3.25 6.65 -5.40 6.45 -5.75 -0.20 -0.35 -1.40 -2.05 -2.75 -3.85 -5.95 -8.15 -15.05 -24.25 -19.10 -33.85 l-1.30 -3.10 -7.30 2.95 c-7.60 3.15 -10.40 3.65 -11 2.15 -2.75 -7.15 -5.75 -16.55 -5.75 -18.05 l0 -1.85 7.95 -2.45 c4.35 -1.30 8.15 -2.55 8.45 -2.75 0.35 -0.20 0.15 -1.75 -0.70 -4.75 -2.85 -10.15 -5.35 -25.30 -6 -36.70 l-0.35 -6.15 -9.40 0.35 -9.45 0.35 0 -6.25 c0 -3.45 0.15 -8.35 0.35 -10.90 l0.30 -4.65 9.20 0.35 c8.55 0.30 9.15 0.30 9.15 -0.55 0.05 -2.40 1.50 -15.50 2.25 -19.90 1.05 -6.60 3.40 -16.95 5 -22.20 0.70 -2.30 1.20 -4.25 1.10 -4.30 -0.75 -0.60 -14.50 -4.75 -15.75 -4.75 -1.40 0 -1.60 -0.15 -1.60 -1.35 0 -1.30 4.10 -12.90 6.30 -18 0.80 -1.85 1.15 -2.15 2.45 -2.15 0.85 0 4.75 1.45 8.75 3.20 l7.25 3.20 2.60 -5.40 c4.85 -10.30 11.30 -21.10 18 -30.30 2 -2.80 3.65 -5.20 3.65 -5.30 0 -0.15 -2.95 -2.55 -6.50 -5.35 -8.55 -6.75 -8.55 -6.05 -0.45 -15.50 7.80 -9.10 7.10 -9 15.15 -1.35 l6 5.65 7.40 -6.75 c8.65 -7.85 15.25 -13.15 23.50 -18.70 3.25 -2.15 5.90 -4.05 5.90 -4.20 0 -0.15 -1.80 -3.30 -4 -6.95 -5.15 -8.60 -5.20 -9.30 -0.85 -11.80 6.20 -3.65 12.80 -6.95 13.80 -6.95 0.60 0 1.05 -0.30 1.05 -0.75 0 -0.50 0.55 -0.75 1.75 -0.75 1.65 0 1.75 0.10 1.75 1.70 0 0.95 -0.25 1.80 -0.55 1.90 -0.50 0.15 5.70 13.40 6.25 13.40 0.10 0 2.20 -0.90 4.65 -2.05 9.85 -4.60 24.50 -9.45 35.80 -11.95 2.65 -0.60 4.85 -1.15 4.85 -1.20 0 -0.10 -0.65 -3.50 -1.50 -7.55 -0.80 -4.05 -1.50 -8.25 -1.50 -9.25 l0 -1.85 5.40 -0.85 c6.35 -1.10 15.50 -2.05 15.85 -1.70 0.15 0.10 0.60 3.35 1 7.20 0.40 3.80 0.85 7.85 1 8.95 l0.25 2 16.40 -0.15 c12.70 -0.15 17.95 0 23.30 0.60 3.80 0.45 7.30 0.80 7.80 0.80 0.70 0 1.05 -1.40 2.25 -9.05 l1.45 -9.05 3.25 0.25 c3.15 0.25 9.75 1.50 15.45 2.90 2.50 0.60 2.60 0.70 2.60 2.30 0 0.95 -0.80 4.85 -1.75 8.65 -0.95 3.80 -1.75 7.25 -1.75 7.65 0 0.45 1.90 1.25 5.65 2.30 10.60 3.05 25.25 8.80 33.80 13.35 2.30 1.20 4.35 2.20 4.50 2.20 0.20 0 2.25 -3.40 4.55 -7.50 3.95 -7 4.30 -7.50 5.65 -7.50 1.50 0 6.70 2.85 13.75 7.60 4.90 3.30 4.90 3.60 -1 12.20 -2.50 3.70 -4.45 6.75 -4.35 6.85 0.10 0.10 2.35 1.75 4.95 3.70 8.90 6.55 24.70 21.05 28.80 26.45 l1.30 1.65 6.30 -5.45 c8.20 -7.10 8.15 -7.10 12.95 -1.10 6.90 8.60 7.65 9.80 7.65 11.90 -0.05 1.95 -0.10 2 -6.75 6.70 -3.70 2.60 -6.75 4.75 -6.75 4.85 0 0.10 0.75 1.20 1.70 2.50 5.50 7.80 14.05 23.85 18.35 34.45 1.65 4.20 2.25 5.20 2.90 4.95 0.45 -0.20 3.60 -1.35 7.05 -2.65 3.45 -1.25 6.35 -2.45 6.40 -2.70 0.10 -0.20 0.90 -0.40 1.80 -0.40 1.65 0 1.70 0.10 3.20 4.40 2.35 6.65 4.10 13.10 4.10 15.15 l0 1.85 -5.85 1.60 c-3.25 0.85 -7.10 1.90 -8.50 2.30 -1.45 0.40 -2.65 1 -2.65 1.35 0 0.35 0.35 1.85 0.75 3.35 2.05 7.60 4.75 27.60 4.75 35.30 0 2.25 0.15 5.10 0.30 6.40 l0.35 2.30 9.15 0 9.20 0 0 3.25 0 3.25 -9.20 0 c-10.65 0 -9.80 -0.55 -9.80 6 0 8.30 -2.45 25.30 -5.30 36.70 -0.70 2.70 -1.20 5 -1.10 5.05 0.50 0.45 14.90 4.25 16.05 4.25 1.15 0 1.35 0.20 1.35 1.40 0 2.50 -5.60 19.65 -6.55 20 -0.25 0.10 -0.45 0.60 -0.45 1.15 0 0.75 -0.35 0.95 -1.75 0.95 -1.50 0 -1.75 -0.15 -1.75 -1.20 0 -1.10 -0.65 -1.45 -6.55 -3.75 -3.60 -1.40 -6.70 -2.55 -6.90 -2.55 -0.20 0 -1.35 2.30 -2.55 5.15 -4.45 10.55 -11 22.50 -17.35 31.70 l-3.20 4.60 6.75 5.05 c8.35 6.20 8.35 6.20 3.70 12.25 -1.70 2.20 -4.30 5.40 -5.80 7.15 -3.90 4.45 -4.45 4.35 -11.15 -1.50 -2.90 -2.55 -5.65 -4.95 -6.10 -5.35 -0.80 -0.60 -1.60 0.05 -8.25 6.60 -8.75 8.65 -13.30 12.60 -22 19.10 l-6.50 4.85 3.75 5.80 c2.05 3.25 4.10 6.20 4.45 6.65 0.40 0.40 0.70 1.50 0.70 2.35 0 1.80 -0.70 2.35 -10.60 8.05 -3.65 2.10 -5.85 3.05 -7 3.05 -1.65 0 -1.75 -0.10 -5.65 -7.35 -2.15 -4.10 -3.95 -7.45 -4.05 -7.55 -0.05 -0.10 -2.10 0.85 -4.55 2.10 -9.45 4.70 -21.65 9.35 -32.60 12.30 -3.95 1.10 -7.30 2.10 -7.40 2.20 -0.45 0.45 2.95 14.05 3.65 14.60 0.70 0.60 1 3.70 0.35 3.70 -0.25 0 -3.10 0.55 -6.40 1.20 -7.25 1.45 -15.15 2.60 -15.50 2.25 -0.10 -0.15 -0.80 -4.20 -1.50 -8.95 -0.70 -4.75 -1.35 -8.80 -1.50 -8.90 -0.10 -0.15 -2.50 0 -5.25 0.35 -6.20 0.70 -29.25 0.70 -36.95 0.05 -3.15 -0.30 -5.80 -0.45 -5.85 -0.35 -0.10 0.10 -0.70 4.25 -1.30 9.25 l-1.10 9.10 -2 -0.05 c-1.15 -0.05 -2.60 -0.15 -3.30 -0.30z m38.90 -146.95 c23.45 -4.75 43.40 -22.15 51.20 -44.65 2 -5.80 2.90 -9.85 3.40 -15.80 1.80 -20.45 -6.75 -41.30 -22.75 -55.40 -5.45 -4.80 -11.90 -8.90 -18.50 -11.70 -5.90 -2.50 -8.15 -3.15 -16.25 -4.65 -11.05 -2.05 -22.45 -0.55 -34.45 4.60 -11.05 4.70 -20 11.55 -27.60 21.15 -9.90 12.50 -15.45 30.55 -14 45.40 2.45 24.65 17.15 45.45 39.80 56.15 4.45 2.10 11.70 4.45 16.15 5.20 4.40 0.75 18.85 0.55 23 -0.30z m-171.65 -21.10 c1.35 -0.90 2.50 -2.35 3.50 -4.35 l1.50 -3 -0.20 -7.75 c-0.15 -4.25 -0.25 -11.15 -0.25 -15.35 -0.05 -6.95 0.05 -7.70 1 -9 0.95 -1.25 1.40 -1.40 4.45 -1.55 4.05 -0.20 4.95 0.40 6 4.10 0.80 3 2.25 18.50 2.20 24.15 0 5.15 -0.75 7.35 -2.55 7.55 -1.25 0.15 -1.40 0.40 -1.40 1.90 l0 1.70 2.45 0 c1.30 0 3.45 -0.15 4.70 -0.30 l2.25 -0.30 -0.25 -1.85 c-0.15 -1 -0.60 -2 -1 -2.20 -0.55 -0.35 -0.65 -1.25 -0.40 -4.30 0.50 -5.55 -1.05 -22.15 -2.55 -27.35 -0.95 -3.35 -3.60 -6.40 -6.45 -7.50 -1.95 -0.75 -2.60 -0.75 -4.40 -0.25 -3 0.90 -4.90 2.55 -6.60 5.60 l-1.45 2.70 0.20 7.50 c0.40 16.45 0.25 22.40 -0.70 24.15 -1.05 2 -2.85 2.75 -5.80 2.45 -2.65 -0.30 -3.65 -1.35 -4.75 -5 -1.55 -5.20 -2.90 -24.15 -1.95 -27.70 0.20 -0.70 0.85 -1.15 2 -1.40 1.50 -0.25 1.70 -0.45 1.70 -1.90 0 -2.75 -0.35 -2.90 -5.20 -2.55 l-4.35 0.35 0.35 2.30 c0.20 1.25 0.50 2.55 0.70 2.80 0.20 0.30 0.50 4 0.65 8.25 0.50 13.50 2.30 23 5 26.25 3.20 3.90 7.60 4.60 11.60 1.85z m302.75 -8.75 c0 -1.70 0.10 -1.75 13.65 -9.60 7.45 -4.40 14.20 -8.05 14.95 -8.15 0.75 -0.10 2.50 0.05 3.90 0.40 1.40 0.35 2.65 0.50 2.75 0.40 0.10 -0.10 0.35 -2.30 0.55 -4.85 l0.35 -4.65 -3.55 0.35 -3.55 0.35 -12.80 -10.15 c-12.70 -10.05 -12.75 -10.10 -12.75 -12.05 0 -1.85 -0.05 -1.90 -1.95 -1.90 l-1.90 0 -0.35 3.85 c-0.55 6.55 -0.55 6.50 1.50 6.75 0.95 0.10 1.85 0 2 -0.20 0.55 -0.90 3.35 -0.30 5.70 1.25 2.10 1.35 2.50 1.85 2.50 3.20 0 2.25 -1.50 22.15 -1.75 23.40 -0.45 2 -7.15 4.60 -8.50 3.30 -0.30 -0.25 -1.30 -0.55 -2.30 -0.75 l-1.80 -0.30 -0.35 3.80 c-0.15 2.15 -0.30 4.60 -0.30 5.55 0 1.60 0.05 1.65 2 1.65 1.95 0 2 -0.05 2 -1.65z m-311.35 -53.20 c0.10 -0.25 0.35 -1 0.55 -1.75 0.25 -1.20 0.15 -1.35 -1.70 -1.65 l-2 -0.35 0 -2.30 c0.05 -1.30 0.55 -4.25 1.20 -6.60 1.05 -3.95 1.25 -4.25 2.55 -4.40 0.80 -0.10 7.35 1.45 14.60 3.45 l13.15 3.60 0 1.40 c0 1.20 0.30 1.50 1.65 1.85 0.85 0.25 1.65 0.30 1.70 0.15 0.65 -1.50 2.50 -9.10 2.25 -9.25 -0.20 -0.10 -0.95 -0.30 -1.70 -0.50 -1.05 -0.25 -1.40 -0.15 -1.40 0.45 0 1.40 -3.45 0.80 -16.25 -2.65 l-12.50 -3.45 -0.15 -2.20 c-0.05 -1.20 0.40 -4.10 1.05 -6.45 l1.20 -4.25 2.65 0 c2.65 0 3.35 -0.50 3.45 -2.55 0.05 -0.45 -7.90 -2.95 -8.20 -2.60 -0.40 0.45 -10.35 37.95 -10.15 38.20 0.30 0.30 6.35 2.10 7.25 2.15 0.30 0.05 0.70 -0.10 0.80 -0.30z m310.40 -7.25 c-0.10 -2.35 0.05 -2.85 0.80 -3.05 5.25 -1.55 24.55 -5.40 26.25 -5.25 2.05 0.15 2.15 0.20 2.55 2.30 0.40 2.10 0.45 2.15 2 1.80 0.90 -0.15 1.65 -0.35 1.75 -0.45 0.25 -0.20 -3 -14.50 -3.40 -14.95 -0.25 -0.25 -1 -0.30 -1.70 -0.10 -1.20 0.30 -1.30 0.50 -1.30 3.30 0 1.65 -0.15 3 -0.35 3 -0.25 0 -5.90 1.25 -12.65 2.75 -6.75 1.50 -13.05 2.75 -14.05 2.75 -1.80 0 -1.85 -0.05 -2.45 -2.50 -0.55 -2.35 -0.70 -2.50 -1.90 -2.20 -0.75 0.20 -1.50 0.45 -1.65 0.65 -0.25 0.25 1.20 7.85 2.80 14.35 0.20 0.90 0.50 1.05 1.85 0.75 1.60 -0.35 1.60 -0.35 1.45 -3.15z m-5.55 -23.05 c0 -1.60 0.20 -1.70 11.40 -7.60 10.80 -5.70 11.50 -6 14.35 -6 4.45 -0.05 4.60 -0.25 2.45 -4.15 -1 -1.85 -1.90 -3.45 -2 -3.55 -0.10 -0.10 -0.85 0.10 -1.70 0.45 -1.20 0.50 -1.50 0.90 -1.50 2.20 -0.05 1.50 -0.30 1.70 -8.30 5.95 -6.35 3.35 -8.70 4.35 -10.25 4.35 -1.85 0 -1.95 -0.10 -1.95 -1.50 0 -1.15 4.80 -26 6.25 -32.40 0.20 -0.70 1.10 -1.50 2.50 -2.20 l2.20 -1.05 -2 -3.95 c-1.05 -2.15 -2.20 -3.90 -2.50 -3.90 -1.30 0 -2.45 1.10 -2.45 2.40 0 1.25 -0.85 1.80 -12.05 7.80 -11.35 6.05 -12.20 6.40 -14.20 6.15 -1.35 -0.20 -2.40 -0.10 -3 0.35 -0.80 0.55 -0.75 0.80 0.65 3.60 2.40 4.65 2.70 4.95 4.15 4.15 0.95 -0.55 1.20 -1.10 1.20 -2.60 l0 -1.90 5.75 -3 c3.15 -1.65 7.15 -3.80 8.90 -4.75 1.70 -0.95 3.80 -1.70 4.60 -1.70 1.45 0 1.50 0.10 1.50 2.15 0 1.15 -1.50 9.40 -3.35 18.25 l-3.35 16.20 -2.10 1.05 -2.05 1.10 1.95 3.60 2 3.65 1.45 -0.75 c1.15 -0.60 1.45 -1.10 1.45 -2.40z m-241.65 -41.20 c0.70 -1.05 0.60 -1.20 -2.40 -3.35 -1.75 -1.25 -3.30 -2.30 -3.45 -2.30 -0.15 0 -0.55 0.50 -0.95 1.10 -0.60 1 -0.55 1.20 0.65 2.15 2.60 2.05 2.10 3.20 -6.75 15.80 -7.95 11.35 -8 11.45 -9.85 11.45 -1.30 0 -2.80 -0.65 -5.70 -2.55 -3.50 -2.30 -3.90 -2.75 -3.90 -4.15 0 -1.20 2 -4.40 8.75 -14.05 4.80 -6.85 8.75 -12.55 8.75 -12.55 0 -0.05 -0.55 -0.45 -1.20 -0.85 l-1.20 -0.80 -8.85 12.70 c-10.55 15.10 -9.60 14.55 -16.45 9.90 -3.85 -2.60 -4.25 -3.05 -4.30 -4.50 0 -1.25 1.65 -4 8.15 -13.25 7.55 -10.85 8.20 -11.65 9.75 -11.80 0.90 -0.10 2 0.10 2.40 0.45 0.60 0.50 0.85 0.40 1.45 -0.35 0.40 -0.50 0.75 -1.10 0.75 -1.30 0 -0.40 -5 -4.10 -5.20 -3.85 -0.10 0.10 -5.50 7.85 -12 17.15 -8.40 12 -11.70 17.10 -11.30 17.50 0.30 0.30 1.65 0.55 3 0.55 2.35 0 2.95 0.35 13.20 7.50 10.65 7.35 10.80 7.50 10.80 9.25 0 1.40 0.30 1.95 1.35 2.60 l1.35 0.80 11.20 -16.10 c6.20 -8.80 11.55 -16.55 11.95 -17.15z m213.70 -1.75 c0.45 -0.80 0.45 -1.15 0 -1.30 -0.80 -0.25 -0.70 -2.70 0.95 -20.05 0.85 -8.60 1.50 -15.75 1.50 -15.85 0 -0.10 0.30 -0.20 0.65 -0.25 0.30 0 1.20 -0.75 1.95 -1.65 l1.30 -1.60 -3.15 -2.60 -3.15 -2.60 -1.55 1.95 c-0.85 1.05 -1.55 2.15 -1.55 2.40 0 0.25 -6.95 2.45 -15.50 4.85 -12.25 3.50 -15.95 4.40 -17.65 4.20 -1.75 -0.20 -2.30 -0.10 -2.75 0.65 -0.35 0.50 -0.60 1.05 -0.60 1.15 0 0.10 1.60 1.50 3.50 3.05 l3.55 2.90 1.45 -1.70 c0.80 -0.95 1.45 -2.05 1.50 -2.45 0 -0.95 4.20 -2.50 6.75 -2.50 1.65 0 2.80 0.75 10.55 7.25 9.45 7.90 9.10 7.35 8.20 12.35 -0.40 2.15 -0.95 3.20 -2.55 4.90 -1.10 1.15 -1.85 2.30 -1.60 2.50 2.65 2.30 6.80 5.50 7.15 5.50 0.25 0 0.75 -0.50 1.05 -1.10z m-203.45 -9.30 l2.85 -1.90 -1.20 -1.80 c-0.65 -1 -1.45 -1.90 -1.70 -2 -0.25 -0.05 -0.55 -2.05 -0.65 -4.40 l-0.15 -4.25 9.25 -6.10 c7.80 -5.20 9.50 -6.15 11.15 -6.15 2.50 0 6.85 1.85 6.85 2.95 0 0.45 0.55 1.65 1.25 2.65 l1.25 1.85 3.65 -2.30 c4.65 -2.95 4.55 -2.85 3.75 -4.10 -0.50 -0.85 -1.15 -1.05 -3.20 -1.05 -2.15 0 -5 -1 -17 -5.90 -11.25 -4.65 -14.50 -6.15 -14.60 -6.90 -0.10 -0.50 -0.75 -1.65 -1.50 -2.55 l-1.35 -1.60 -3.35 2.10 -3.40 2.15 1.30 1.85 c0.65 1 1.45 1.85 1.75 1.85 0.30 0 0.35 6.05 0.15 17.65 -0.25 14.30 -0.45 17.70 -1 18.15 -0.60 0.45 -0.60 0.85 -0.15 1.85 0.55 1.20 0.65 1.25 1.90 0.60 0.70 -0.40 2.60 -1.55 4.15 -2.65z m156.95 -25.45 c0.40 -1.05 0.35 -1.40 -0.30 -1.75 -0.45 -0.30 -0.75 -1.15 -0.75 -2.25 0 -1.35 4.10 -17.20 6.80 -26.25 0.20 -0.60 0.75 -0.90 1.70 -0.90 1.60 0 1.70 -0.15 2.20 -2.05 0.30 -1.30 0.20 -1.35 -3.60 -2.40 -2.15 -0.60 -4.05 -1.05 -4.20 -1.05 -0.15 0 -0.45 0.75 -0.60 1.70 -0.20 0.95 -0.60 1.95 -0.95 2.20 -1.60 1.35 -20.05 9.10 -21.60 9.10 -1.60 0 -1.90 -0.30 -7.75 -8.85 l-6.10 -8.85 0.20 -2.85 0.20 -2.85 -3.95 -1.10 c-2.15 -0.60 -4.05 -1 -4.15 -0.85 -0.10 0.10 -0.35 0.90 -0.50 1.75 -0.25 1.25 -0.15 1.60 0.50 1.60 1.35 0 0.95 2 -2.90 15.75 -3.50 12.50 -3.70 13 -4.95 13.15 -0.90 0.10 -1.45 0.60 -1.80 1.70 -0.30 0.90 -0.40 1.75 -0.20 1.95 0.40 0.35 7.80 2.50 7.95 2.30 0.05 -0.05 0.25 -0.85 0.45 -1.70 0.25 -1.30 0.15 -1.65 -0.45 -1.65 -1.45 0 -0.90 -3.65 2 -14.05 l2.85 -9.95 1.65 0 c1.65 0 1.90 0.30 8.35 9.95 l6.60 9.95 10.25 -4.70 c6.30 -2.90 10.85 -4.70 11.85 -4.70 1.60 0 1.65 0.10 1.65 1.95 0 1.05 -0.90 5.15 -2 9.10 -3.85 13.75 -3.35 12.45 -4.95 12.45 -1.05 0 -1.50 0.30 -1.75 1.15 -0.55 2.05 -0.30 2.30 2.85 3.30 4.15 1.35 4.80 1.30 5.40 -0.30z m-107.65 -4 c1.85 -0.25 2.10 -0.45 2.10 -1.60 0 -1.75 -0.50 -2.40 -2 -2.60 -1.20 -0.20 -1.30 -0.45 -2.85 -9.95 -0.85 -5.35 -1.60 -10.70 -1.60 -11.85 -0.05 -2.10 -0.05 -2.15 1.65 -2.15 1.35 0 4.05 1.40 11.35 5.75 6.45 3.90 9.75 5.65 10.15 5.30 0.30 -0.25 3.80 -4.30 7.80 -9 6.50 -7.65 7.40 -8.50 8.80 -8.55 1.55 0 1.60 0.05 2.15 3.15 2.05 12.10 3.15 19.90 2.90 20.55 -0.20 0.45 -0.75 0.80 -1.25 0.80 -0.75 0 -0.85 0.30 -0.70 1.75 0.25 2.05 0.70 2.10 5.90 1.15 3.35 -0.60 3.55 -0.85 2.90 -3.25 -0.20 -0.80 -0.70 -1.15 -1.45 -1.15 -0.70 0 -1.30 -0.35 -1.45 -0.85 -0.60 -2.20 -4.35 -26.75 -4.20 -27.75 0.10 -0.75 0.55 -1.20 1.25 -1.30 0.95 -0.15 1.05 -0.40 0.80 -1.75 -0.15 -0.90 -0.35 -1.65 -0.40 -1.75 -0.10 -0.10 -2.05 0.15 -4.35 0.45 l-4.20 0.60 0.20 2.60 0.20 2.60 -7.15 8.30 c-9.20 10.60 -7.90 10.40 -20.25 3.05 -4.95 -2.90 -9.10 -5.55 -9.30 -5.85 -0.20 -0.35 -0.40 -1.30 -0.40 -2.20 0 -0.85 -0.25 -1.75 -0.55 -1.95 -0.30 -0.15 -2.30 -0.05 -4.50 0.30 -4.15 0.65 -4.30 0.80 -3.65 3.40 0.20 0.75 0.70 1.10 1.50 1.10 0.90 0 1.20 0.35 1.45 1.65 3.60 20.45 4.40 28.35 3 28.35 -0.80 0 -1 1.30 -0.45 2.75 0.30 0.70 0.75 0.80 2.40 0.55 1.15 -0.20 3 -0.50 4.20 -0.65z"/>
  <path d="M312 363.70 c0 -10.20 3.70 -14.70 14.10 -17.20 2.30 -0.55 5.10 -1 6.25 -1 3.20 0 6.95 -0.95 7.90 -2 2 -2.20 -1.35 -3.50 -8.90 -3.50 -6.50 0 -8.25 0.45 -9.80 2.50 -1.40 1.90 -3.60 2 -7.05 0.25 -2.25 -1.15 -2.50 -1.45 -2.50 -2.90 0 -2.50 4.15 -7 7.35 -7.90 3.30 -0.95 19.85 -0.95 23.55 0 5.25 1.35 7.30 4.25 7.30 10.30 0 3.25 -0.20 4.35 -1.15 5.85 -2.10 3.45 -4.95 4.65 -12.90 5.40 -5.80 0.55 -10.30 1.95 -12.15 3.75 l-1.25 1.25 9.40 0 9.35 0 0 -2 0 -2 4.25 0 4.25 0 0 6.50 0 6.50 -19 0 -19 0 0 -3.80z"/>
  <path d="M353 363.70 c0 -11.95 5.55 -16.80 20.95 -18.25 6.70 -0.65 9.55 -2.45 6.75 -4.30 -1.10 -0.70 -2.65 -0.95 -7.40 -1.10 -6.90 -0.20 -9.15 0.30 -10.70 2.45 -1.45 1.90 -3.65 2 -7.10 0.25 -2.25 -1.15 -2.50 -1.45 -2.50 -2.90 0 -2.50 4.15 -7 7.35 -7.90 3.30 -0.95 19.85 -0.95 23.55 0 5.25 1.35 7.30 4.25 7.30 10.30 0 3.25 -0.20 4.35 -1.15 5.85 -2.10 3.45 -4.95 4.65 -12.90 5.40 -5.80 0.55 -10.30 1.95 -12.15 3.75 l-1.25 1.25 9.40 0 9.35 0 0 -2 0 -2 4.25 0 4.25 0 0 6.50 0 6.50 -19 0 -19 0 0 -3.80z"/>
  <path d="M510.75 374.90 c-0.15 -0.35 0.05 -4.15 0.40 -8.40 l0.60 -7.75 1.75 -0.15 c1.55 -0.15 2.40 0.35 6.65 3.65 4.35 3.40 4.85 4 4.85 5.40 0 1.50 -0.30 1.75 -5.55 4.75 -5.45 3.05 -8.20 3.85 -8.70 2.50z"/>
  <path d="M451.65 236.65 c-4.80 -4 -5.15 -4.45 -5.15 -6.10 l0 -1.80 5.90 -1.65 c3.20 -0.90 6.60 -1.60 7.50 -1.60 1.60 0 1.60 0.05 1.60 2.40 0 1.30 -0.25 4.75 -0.60 7.75 l-0.55 5.35 -1.80 0 c-1.50 -0.05 -2.60 -0.75 -6.90 -4.35z"/>
  <path d="M257.50 226.25 l0 -7.75 1.90 0 c1.10 0 4.10 0.95 7.45 2.35 l5.60 2.40 0 1.75 c0.05 1.65 -0.20 1.90 -5.45 5.40 -4.50 2.95 -5.85 3.60 -7.50 3.60 l-2 0 0 -7.75z"/>
 </g>
 <g fill="#000000">
  <path d="M349.50 703.65 c-1.65 -0.65 -4.10 -2.90 -4.95 -4.60 -0.50 -1 -5.80 -16.45 -11.75 -34.35 -11.80 -35.40 -11.80 -35.45 -16.15 -37.35 -1.55 -0.70 -15.20 -3.80 -35.45 -8.10 -3.35 -0.70 -6.60 -0.35 -9.10 0.95 -0.80 0.40 -12.80 12.25 -26.60 26.25 -18.70 19 -25.60 25.65 -26.90 26.10 -2.90 0.95 -5.70 0.30 -10.95 -2.65 -2.70 -1.55 -14.45 -8.15 -26.15 -14.65 -11.70 -6.55 -21.80 -12.40 -22.40 -12.95 -1.65 -1.45 -3.10 -4.45 -3.10 -6.40 0 -0.85 3.85 -16.70 8.60 -35.10 9.20 -35.80 9.40 -36.90 7.45 -40.70 -0.55 -1.10 -7.10 -8.30 -14.50 -16 -14.10 -14.55 -15.15 -15.45 -19.40 -15.70 -1.05 -0.05 -5.05 0.60 -8.90 1.50 -43.40 9.80 -61.65 13.65 -63.65 13.35 -3.95 -0.60 -4.60 -1.50 -16.75 -25.10 -6.20 -12.05 -12.50 -24.25 -14 -27.15 -1.50 -2.90 -2.90 -5.95 -3.10 -6.85 -0.40 -1.95 0.40 -5.10 1.80 -6.90 0.60 -0.75 12.15 -11.60 25.65 -24.10 13.50 -12.55 25.10 -23.35 25.70 -24.10 1.85 -2.05 3.10 -5.10 3.10 -7.55 0 -1.25 -1.35 -9.80 -3.05 -19 -3.10 -17.30 -3.85 -19.75 -6.50 -22.30 -1 -0.95 -9.65 -4.30 -33.45 -12.95 -37.70 -13.75 -38.90 -14.20 -39.30 -15.40 -1.35 -4.15 5.45 -64.90 7.75 -69.35 1.95 -3.85 2.10 -3.85 38.05 -10.25 41.75 -7.40 38.85 -6.75 41.85 -9.70 1.30 -1.30 2.70 -3.25 3.10 -4.35 0.40 -1.05 3.10 -7.55 6 -14.45 4.90 -11.60 5.30 -12.75 5.30 -15.75 0 -2.45 -0.25 -3.70 -1.10 -5.15 -0.60 -1 -10.25 -13.90 -21.45 -28.65 -11.15 -14.75 -20.60 -27.40 -21 -28.10 -0.95 -1.85 -0.85 -5.55 0.20 -7.40 0.75 -1.35 8.95 -11.60 35.35 -44.10 7 -8.60 7.30 -8.85 11.90 -8.85 3.50 0.05 4.15 0.25 21.60 7.60 38.90 16.30 46.45 19.30 48.70 19.55 1.50 0.10 3.30 -0.15 5.05 -0.75 3.35 -1.15 23.40 -14.95 25.20 -17.30 2.65 -3.45 2.65 -3.05 -0.35 -41.20 -1.90 -23.65 -2.65 -35.55 -2.35 -36.60 0.60 -2.15 2.30 -4.45 3.90 -5.25 2.80 -1.45 64.25 -21.80 65.75 -21.80 2.05 0.05 5.30 1.50 6.65 3.05 0.60 0.65 9.80 13.80 20.45 29.20 10.65 15.40 20.05 28.70 20.90 29.60 0.80 0.85 2.55 2.05 3.85 2.60 2.30 1 2.75 1 15.80 0.50 14.75 -0.60 14.55 -0.55 17.25 -4 0.75 -0.95 8.70 -15.40 17.70 -32.20 11.85 -22.20 16.80 -30.95 18.10 -32.10 1.05 -0.95 2.65 -1.80 4 -2.05 2.45 -0.55 0.40 -0.95 33.15 6.90 6.75 1.60 17.55 4.20 24 5.75 13.15 3.10 15 3.95 16.50 7.45 0.85 1.85 1.10 5.80 2.25 38.05 l1.30 36 1.25 2.65 c1.55 3.20 2.30 3.75 12.95 9.75 9.15 5.15 11.80 6.10 15 5.60 1.45 -0.20 11.80 -5.65 33.30 -17.60 28.60 -15.85 31.45 -17.30 34 -17.50 2 -0.20 3.35 0 4.55 0.55 1.60 0.75 39.85 39.15 47.80 47.95 3.50 3.85 4.20 6.15 3 9.60 -0.40 1.10 -5.85 10.65 -12.15 21.25 -6.25 10.60 -12.80 21.60 -14.50 24.50 -1.70 2.90 -4.45 7.50 -6.05 10.25 -4 6.70 -4.35 7.70 -4.10 11.10 0.20 2.50 0.90 4.20 5.45 12.65 5.60 10.45 8.05 13.55 11.35 14.50 1 0.30 14.25 1.30 29.35 2.25 40.30 2.55 43.35 2.75 45.10 3.30 2.10 0.65 4.95 3.90 5.60 6.30 1.45 5.70 14.05 64.65 14.05 65.90 0 2.15 -1.75 5.35 -3.60 6.55 -0.90 0.60 -14.60 7.60 -30.40 15.50 -15.80 7.95 -30.05 15.15 -31.60 16.05 -2.05 1.20 -3.25 2.35 -4.25 4 -1.30 2.25 -1.40 2.85 -2.25 15.35 -0.95 13.95 -0.80 16.20 1.10 19.50 0.80 1.30 8.60 7.25 29.15 22.35 15.45 11.30 28.85 21.30 29.80 22.15 2.05 1.90 3.05 4.10 3.05 6.70 0 1.25 -3.75 12.20 -11 32.05 -6.05 16.55 -11.35 30.75 -11.75 31.55 -0.95 1.85 -3.65 3.90 -5.65 4.30 -0.85 0.15 -5.10 -0.05 -9.45 -0.55 -46.55 -5.05 -61.65 -6.50 -63.25 -6.25 -4.25 0.80 -5.80 2.30 -14.95 14.85 -4.75 6.50 -9.05 12.65 -9.55 13.60 -0.55 1.10 -0.90 2.85 -0.90 4.70 0 2.60 1.35 6.45 12.75 36.40 8.55 22.45 12.75 34.05 12.75 35.35 0 2.25 -1.45 5.45 -3.05 6.90 -3.05 2.70 -50.05 37.75 -51.20 38.20 -1.85 0.70 -5.25 0.60 -6.80 -0.20 -0.75 -0.35 -3.75 -2.70 -6.75 -5.15 -3 -2.45 -11.05 -8.95 -17.95 -14.50 -6.85 -5.50 -16.30 -13.10 -21 -16.85 -4.65 -3.80 -9.30 -7.30 -10.35 -7.85 -3.80 -1.95 -5.80 -1.50 -23.40 5.05 -8.85 3.25 -16.80 6.40 -17.70 7 -3.95 2.40 -3.85 1.95 -11.90 40.15 -4.05 19.30 -7.40 35.25 -7.40 35.45 0 0.75 -3.20 4 -4.65 4.75 -1.70 0.85 -7.15 1.60 -23.10 3.10 -6.05 0.55 -13.35 1.25 -16.25 1.55 -5.50 0.55 -24.70 0.65 -26 0.15z m-17.60 -147.20 c0.60 -4.95 1.20 -9.20 1.30 -9.40 0.15 -0.20 1.65 -0.15 3.40 0.05 1.75 0.20 10 0.55 18.40 0.70 12.45 0.25 16.55 0.15 22.20 -0.50 3.80 -0.45 7 -0.75 7.10 -0.70 0.05 0.10 0.70 4.20 1.40 9.10 0.70 4.95 1.35 9.05 1.45 9.10 0.15 0.15 10.40 -1.60 14.95 -2.55 2 -0.40 3.85 -0.75 4.10 -0.75 0.30 0 0.15 -0.30 -0.30 -0.60 -0.70 -0.55 -4.40 -14.85 -4.40 -17 0 -0.55 1.90 -1.25 6.40 -2.40 11.30 -2.95 24.50 -7.95 35.20 -13.30 3 -1.50 5.65 -2.60 5.90 -2.45 0.20 0.15 2.15 3.45 4.20 7.40 2.10 3.90 4 7.40 4.25 7.80 0.35 0.50 1.60 0 5.85 -2.45 3 -1.75 6.60 -3.90 8.05 -4.80 l2.55 -1.65 -4.95 -7.50 c-2.70 -4.15 -4.95 -7.75 -4.95 -8 0 -0.25 0.60 -0.85 1.40 -1.30 2.80 -1.85 13 -9.60 16.85 -12.90 2.20 -1.90 7.65 -7.05 12.10 -11.45 l8.10 -8.05 6.90 6.10 6.90 6.10 1.95 -2.15 c1.95 -2.15 5.90 -7.05 8.50 -10.50 l1.35 -1.80 -7.25 -5.40 c-4.05 -2.95 -7.30 -5.60 -7.30 -5.85 0 -0.25 1.65 -2.85 3.65 -5.80 7.05 -10.20 13.15 -21.35 18.10 -32.90 1.30 -3.10 2.55 -5.65 2.75 -5.65 0.25 0 4.15 1.45 8.75 3.25 4.60 1.80 8.45 3.20 8.50 3.15 0.30 -0.30 4.45 -12.30 5.30 -15.30 0.50 -1.70 0.70 -3 0.45 -2.85 -0.50 0.30 -16.50 -4.15 -17.20 -4.75 -0.20 -0.25 0.35 -3.70 1.35 -7.85 1 -4.05 2.15 -9.25 2.60 -11.50 1.10 -5.80 2.75 -20.70 2.75 -25.15 0 -6.55 -0.85 -6 9.80 -6 l9.20 0 0 -1.75 0 -1.75 -9.20 0 -9.15 0 -0.35 -2.30 c-0.15 -1.30 -0.30 -4.15 -0.30 -6.40 0 -8.10 -2.65 -27.45 -5 -36.30 -1.50 -5.70 -1.50 -5.75 1.90 -6.65 12.05 -3.25 14.60 -4 14.60 -4.30 0 -1.90 -5.50 -18.30 -5.95 -17.65 -0.25 0.35 -14.70 5.80 -16.45 6.20 -0.40 0.10 -1.50 -1.85 -2.90 -5.35 -4.65 -11.55 -12.90 -26.95 -19 -35.60 -1.20 -1.70 -2.20 -3.40 -2.15 -3.75 0 -0.35 3.25 -2.90 7.20 -5.65 3.95 -2.75 7.20 -5.20 7.25 -5.45 0 -0.50 -7.10 -9.95 -9.85 -13.15 l-1.40 -1.60 -6.95 6 c-3.85 3.25 -7.20 5.90 -7.40 5.85 -0.20 -0.10 -2.45 -2.45 -5 -5.20 -8.25 -9 -19.15 -18.80 -28.15 -25.15 -2.45 -1.80 -4.60 -3.30 -4.65 -3.35 -0.10 -0.05 2.20 -3.65 5.15 -7.90 l5.30 -7.80 -5.65 -3.65 c-3.10 -2 -6.70 -4.25 -7.95 -5 l-2.30 -1.30 -1.15 2.10 c-0.65 1.15 -2.70 4.85 -4.60 8.25 l-3.45 6.10 -5.60 -2.95 c-9.95 -5.30 -22.70 -10.40 -35 -14.05 -3.50 -1 -6.50 -1.95 -6.60 -2.05 -0.10 -0.15 0.80 -4.25 2.05 -9.15 1.25 -4.90 2.20 -8.95 2.10 -9.05 -0.60 -0.40 -12.30 -2.95 -16.70 -3.60 l-1.50 -0.25 -1.45 9.20 c-0.75 5 -1.45 9.20 -1.50 9.30 -0.05 0.05 -4.10 -0.35 -9.05 -0.95 -7.90 -0.90 -10.90 -1 -25.55 -0.80 l-16.60 0.20 -0.30 -2.05 c-0.15 -1.15 -0.60 -5.20 -1 -9 -0.40 -3.85 -0.85 -7.05 -0.95 -7.15 -0.30 -0.30 -17.70 2.20 -18.20 2.60 -0.10 0.10 0.65 4.25 1.65 9.25 1 5 1.75 9.15 1.65 9.25 -0.10 0.05 -2.85 0.75 -6.15 1.45 -11.60 2.60 -25.10 7.15 -35.35 11.95 -2.65 1.25 -5.30 2.40 -5.85 2.60 -0.90 0.25 -1.50 -0.65 -5.10 -7.85 -2.25 -4.50 -4.15 -8.25 -4.20 -8.30 -0.25 -0.30 -14.30 7.30 -16.15 8.70 -0.15 0.10 7.35 12.85 9.05 15.30 0.30 0.45 0.45 0.95 0.35 1 -0.15 0.10 -3.15 2.10 -6.75 4.45 -3.55 2.35 -8.75 6.05 -11.50 8.20 -4.70 3.65 -17.50 15.05 -20.20 17.95 l-1.20 1.25 -6.85 -6.45 -6.85 -6.50 -5.45 6.40 c-3 3.50 -5.75 6.70 -6.10 7.15 -0.55 0.75 0.25 1.50 6.25 6.25 3.80 2.95 7.10 5.55 7.35 5.75 0.25 0.20 -1.60 3.15 -4.05 6.55 -7.65 10.45 -13.85 20.85 -18.95 31.80 -1.55 3.20 -2.85 5.90 -2.90 5.95 -0.05 0.05 -3.90 -1.55 -8.55 -3.60 l-8.45 -3.70 -1.60 3.60 c-2.30 5.30 -5.20 13.80 -4.80 14.05 0.20 0.10 3.95 1.35 8.35 2.80 4.40 1.45 8.20 2.80 8.45 3.05 0.30 0.25 -0.25 2.85 -1.30 6.55 -3.40 11.60 -5.80 24.50 -6.95 37.15 -0.30 3.60 -0.60 6.50 -0.65 6.50 0 0.05 -4.05 -0.15 -8.95 -0.40 -4.90 -0.30 -9 -0.35 -9.15 -0.25 -0.10 0.15 -0.35 4.35 -0.55 9.35 l-0.30 9.10 9.50 -0.35 9.50 -0.35 0.35 6.20 c0.70 11.95 3.05 26.10 6.35 38.10 0.90 3.20 1.50 5.95 1.40 6.05 -0.10 0.10 -4.10 1.40 -8.80 2.90 -4.75 1.45 -8.65 2.80 -8.65 3.05 0 0.50 5.85 16.85 6.15 17.15 0.10 0.15 3.55 -1.15 7.65 -2.85 4.10 -1.65 7.95 -3.25 8.60 -3.50 1.10 -0.40 1.25 -0.20 2.70 3.20 4.80 11.10 13.25 25.95 20.10 35.30 1.70 2.35 3.25 4.55 3.45 4.85 0.20 0.35 -2.65 2.85 -7.15 6.20 l-7.45 5.65 3.35 4.05 c1.80 2.25 4.50 5.45 6 7.20 l2.70 3.10 4.50 -4.10 c2.50 -2.30 5.65 -5.15 7 -6.35 l2.50 -2.20 6.80 6.75 c9.55 9.40 17.05 15.70 25.80 21.65 2.40 1.65 4.85 3.35 5.45 3.80 1.05 0.80 1 0.85 -3.55 8 -2.50 3.95 -4.65 7.55 -4.80 7.95 -0.20 0.50 0.50 1.25 2.10 2.20 3.60 2.20 13.75 7.85 13.80 7.70 0.45 -1.15 7.65 -15.20 8.05 -15.75 0.50 -0.65 1.30 -0.40 6.05 1.85 10.85 5.15 22.70 9.45 34.40 12.50 4.05 1.05 7.50 2.05 7.65 2.20 0.15 0.10 -0.60 4.20 -1.60 9.05 -1 4.85 -1.75 8.95 -1.60 9.10 0.25 0.25 12.05 2.40 15.35 2.80 0.95 0.10 2 0.25 2.30 0.25 0.30 0.05 0.95 -3.35 1.60 -8.95z"/>
  <path d="M335 530.55 c-2.30 -0.25 -2.75 -0.45 -2.75 -1.30 0 -0.65 0.40 -1.05 1.05 -1.15 1.15 -0.15 1.05 0.35 2 -14.65 l0.35 -5.35 -2.10 -0.35 c-1.80 -0.30 -2.10 -0.50 -1.95 -1.40 0.10 -0.60 0.45 -1.10 0.80 -1.05 0.30 0.05 1.85 0.10 3.35 0.15 2.70 0.05 2.75 0.10 2.75 1.55 l0 1.45 1.70 -1 c1.80 -1.05 4.10 -1.30 10.95 -1.05 3.75 0.10 3.85 0.15 3.85 1.35 l0 1.25 -6.10 -0.10 c-9.80 -0.15 -10.60 0.65 -11.40 11.45 -0.25 3.80 -0.50 7.20 -0.50 7.55 0 0.30 0.60 0.60 1.30 0.60 1.05 0 1.25 0.20 1.10 1.10 -0.15 1.30 -0.55 1.35 -4.40 0.95z"/>
  <path d="M372.75 529.50 c-0.30 -0.55 -3.20 -5.05 -6.50 -10 -5.35 -8 -6.15 -9 -7.35 -9 -1.05 0 -1.40 -0.25 -1.40 -0.95 0 -1.10 0.55 -1.35 4.15 -1.85 2.10 -0.30 2.35 -0.20 2.35 0.65 0 0.50 -0.20 1.15 -0.50 1.45 -0.30 0.30 1.30 3 4.30 7.45 2.60 3.85 4.90 7.05 5.10 7.10 0.20 0.10 1.35 -3.35 2.60 -7.65 1.20 -4.25 2.35 -7.85 2.50 -7.95 0.15 -0.10 2.60 2.75 5.50 6.30 4.50 5.50 6 7.10 6 6.30 0 -0.10 0.70 -3.55 1.50 -7.60 1.70 -8.50 1.80 -9.25 0.75 -9.25 -0.45 0 -0.75 -0.45 -0.75 -1.20 0 -1 0.30 -1.20 2.30 -1.50 1.30 -0.15 2.75 -0.30 3.25 -0.30 1.30 0 1.25 2 -0.05 2.35 -0.55 0.15 -1 0.30 -1 0.35 0 0.65 -4.50 23 -4.65 23.15 -0.15 0.10 -2.75 -2.90 -5.85 -6.70 -3.10 -3.80 -5.75 -6.90 -5.90 -6.90 -0.15 0 -0.80 1.90 -1.45 4.25 -2.50 8.75 -3.70 12.50 -4.05 12.50 -0.20 0 -0.60 -0.45 -0.85 -1z"/>
  <path d="M312 525.70 c-7.55 -2 -9.55 -2.80 -11.20 -4.35 -2.35 -2.20 -3.10 -5.20 -2.30 -8.85 2.30 -10.45 4.55 -13.20 10.50 -13.15 3.50 0.05 12.60 2.80 15.20 4.55 1.35 0.95 2.05 1.15 2.15 0.75 0.25 -0.65 1.75 -0.90 2.25 -0.40 0.15 0.20 -0.10 1.65 -0.50 3.30 -0.70 2.50 -1 2.95 -1.85 2.85 -0.55 -0.10 -1.05 -0.60 -1.15 -1.15 -0.25 -1.40 -2.55 -3.70 -4.55 -4.55 -3.70 -1.55 -11.20 -3.30 -12.85 -2.95 -2.40 0.45 -4.50 2.40 -5.10 4.75 -0.60 2.40 -0.90 2.20 6.30 4.05 3.65 0.95 4.60 1.35 4.60 2.10 0 1.45 -1 1.45 -6.50 -0.15 -2.95 -0.85 -5.40 -1.30 -5.65 -1.05 -0.85 0.85 -0.95 4.30 -0.20 6.20 1.05 2.40 2.80 3.40 9.10 5.10 4.15 1.10 5.95 1.35 8.45 1.15 3 -0.25 4.30 0.10 4.30 1.15 0 0.65 -3.15 1.45 -5.70 1.40 -1.40 0 -3.80 -0.35 -5.30 -0.75z"/>
  <path d="M410 519.40 c-2.05 -1.05 -2.50 -1.70 -5.10 -6.85 -5 -9.80 -3.85 -12.95 6.60 -18.05 4.35 -2.05 6.15 -2.65 8.75 -2.85 2.65 -0.25 3.15 -0.40 2.70 -0.95 -0.75 -0.90 -0.20 -2.20 0.90 -2.15 0.65 0 2.20 2.70 5.75 10 l4.90 10 1.55 -0.80 c1.70 -0.90 2.95 -0.70 2.95 0.50 0 0.65 -4.30 3.25 -5.45 3.25 -0.25 0 -0.65 -0.45 -0.80 -1 -0.30 -0.90 -0.55 -0.75 -2.65 1.50 -1.75 1.85 -3.75 3.15 -8 5.25 -6.95 3.40 -9 3.75 -12.10 2.15z m11.10 -4.35 c6.10 -3 8.35 -5.05 8.75 -7.90 0.20 -1.65 -0.10 -2.70 -2.05 -6.50 -1.25 -2.50 -2.90 -5.05 -3.65 -5.65 -2.25 -1.80 -5.70 -1.20 -12.35 2.05 -8.30 4.10 -8.95 6 -4.95 14.25 3.70 7.70 5.35 8.15 14.25 3.75z"/>
  <path d="M283.50 514.70 c-2.90 -1.50 -5.85 -3.35 -6.65 -4.05 -1.50 -1.50 -2.55 -4.60 -2.10 -6.30 0.15 -0.60 2.90 -6.45 6.15 -12.95 4.20 -8.60 6.05 -11.90 6.70 -11.90 1.15 0 1.55 0.75 0.95 1.85 -0.30 0.50 -1.10 2.10 -1.80 3.50 l-1.25 2.65 7.50 3.75 c4.10 2.05 7.50 3.90 7.50 4.15 0 0.20 -0.25 0.70 -0.50 1.10 -0.40 0.60 -1.70 0.15 -7.95 -3 -4.15 -2.05 -7.60 -3.60 -7.75 -3.50 -0.80 0.85 -7.30 14.85 -7.30 15.75 0 2.05 2.35 4.10 7.95 6.95 4.65 2.40 5.40 2.95 5.20 3.80 -0.15 0.55 -0.50 1 -0.85 1 -0.30 0 -2.90 -1.25 -5.80 -2.80z"/>
  <path d="M263.95 504.35 c-0.40 -0.35 -1.50 -1.20 -2.40 -1.95 l-1.60 -1.40 5.20 -6.35 c5.90 -7.30 6.35 -8 6.35 -10.20 0 -2.30 -1.50 -4.40 -5.60 -7.80 -4.95 -4.10 -6.80 -5.15 -9.05 -5.15 -2.80 0 -4.10 1 -8.85 6.85 -4.20 5.10 -5.10 6.65 -4.05 6.65 0.75 0 0.70 1.25 -0.10 1.90 -0.45 0.40 -1.20 0.10 -2.85 -1.20 -1.25 -1 -2.30 -1.85 -2.40 -1.95 -0.10 -0.10 0.05 -0.65 0.35 -1.20 0.50 -0.90 0.75 -0.95 1.55 -0.45 0.85 0.55 1.10 0.50 1.70 -0.40 0.40 -0.55 2.40 -3.05 4.40 -5.50 2 -2.45 4.55 -5.50 5.60 -6.80 l1.90 -2.35 -1.60 -1.40 c-1.40 -1.25 -1.50 -1.50 -0.85 -2.35 0.70 -0.95 0.80 -0.90 3.30 1.20 2.30 1.95 2.50 2.25 1.80 3 -1.05 1.20 -0.95 1.50 0.60 1.50 2.05 0 5 1.65 9.55 5.35 4.90 4.05 6.70 6.50 7 9.65 0.30 3 -0.30 4.05 -5.95 11.05 l-4.55 5.60 1.65 1.40 c1.45 1.15 1.55 1.45 1 2.15 -0.80 0.95 -1.05 0.95 -2.10 0.15z"/>
  <path d="M459 503.55 c-0.55 -1.10 -0.50 -1.15 5.05 -6 3.60 -3.10 4.30 -6.50 2.10 -9.95 l-1.35 -2.10 -0.90 2.40 c-1.60 4.30 -10.20 12.10 -14.50 13.10 -3.85 0.95 -6.10 -0.15 -10.45 -5.10 -3.85 -4.40 -4.95 -6.40 -4.95 -9.20 0 -2.90 1.40 -5.05 5.65 -8.80 4.75 -4.15 7.95 -6.30 10.20 -6.70 1.80 -0.35 2 -0.65 1.05 -1.65 -0.90 -0.90 3.95 -5.30 4.95 -4.45 1 0.80 0.80 1.70 -0.60 2.60 -0.70 0.45 -1.25 1.05 -1.25 1.35 0 0.25 3.20 4.20 7.15 8.75 7.85 9.10 8.80 10.55 8.85 13.35 0 3.65 -2.35 6.95 -8.40 11.80 -2 1.55 -2.05 1.55 -2.60 0.60z m-9.60 -5 c1.80 -0.55 9.50 -6.80 11.05 -9 1.40 -1.95 1.75 -4.60 0.90 -6.60 -0.90 -2.10 -5.80 -7.85 -7.40 -8.75 -3 -1.65 -5.75 -0.50 -12.05 5 -4.95 4.30 -5.40 4.95 -5.40 7.65 0 2.40 1 4 5.30 8.55 3.65 3.80 4.30 4.05 7.60 3.15z"/>
  <path d="M396.75 492.95 c-0.25 -0.70 -0.10 -1.25 0.30 -1.50 0.95 -0.60 1.25 -0.55 2 0.35 0.55 0.70 0.50 0.90 -0.30 1.50 -1.30 0.95 -1.60 0.90 -2 -0.35z"/>
  <path d="M417.30 482.70 c-0.20 -0.50 -0.10 -1.10 0.15 -1.35 0.75 -0.75 2.30 -0.15 2.30 0.90 0 1.30 -2 1.65 -2.45 0.45z"/>
  <path d="M360.20 476.55 c-0.55 -0.55 -0.10 -2.05 0.60 -2.05 0.65 0 0.75 -0.40 0.50 -2.10 -0.15 -1.20 -0.50 -4.50 -0.80 -7.40 -0.85 -8.90 -0.80 -8.65 -2.80 -8.35 -1.55 0.25 -1.70 0.20 -1.70 -0.95 0 -0.95 0.25 -1.20 1.20 -1.20 0.65 0 1.90 -0.15 2.75 -0.30 1.40 -0.30 1.55 -0.20 1.55 1 0 0.70 0.25 1.30 0.50 1.30 0.30 0 0.50 -0.25 0.50 -0.55 0 -1.70 12.15 -4 16.45 -3 5.05 1.10 6 2.70 7 11.70 l0.80 7.10 1.90 -0.15 c1.60 -0.15 1.85 -0.05 1.85 0.85 0 0.75 -0.45 1.10 -1.70 1.30 -0.90 0.20 -2.20 0.25 -2.85 0.15 -1.15 -0.15 -1.25 -0.40 -2 -7.65 -0.45 -4.15 -1.05 -8.05 -1.40 -8.65 -1.20 -2.20 -3.25 -2.75 -9.10 -2.45 -9.65 0.55 -11.30 2 -10.75 9.35 0.65 8.35 0.85 9.50 1.85 9.50 1.10 0 1.55 0.65 1.15 1.65 -0.15 0.50 -1.15 0.80 -2.80 0.95 -1.35 0.05 -2.60 0.05 -2.70 -0.05z"/>
  <path d="M474.85 475.20 c-2.10 -1.50 -2.30 -1.85 -1.80 -2.75 0.50 -0.95 0.60 -0.95 1.70 -0.25 0.70 0.45 1.35 0.80 1.45 0.80 1.40 0 9.20 -9.90 11.75 -14.85 1.40 -2.80 1.40 -5.35 -0.05 -6.35 -2.85 -2 -5.45 -0.40 -10.35 6.40 -5.45 7.60 -7.85 9.85 -10.65 10.15 -5.35 0.60 -8.45 -4.20 -6.20 -9.60 1.10 -2.60 7.40 -11.30 9.70 -13.35 1.50 -1.35 1.95 -2.10 1.75 -2.85 -0.45 -1.80 1.10 -1.80 3.60 0 2.85 2.05 2.85 3.20 -0.10 3.20 -1.75 0 -2.40 0.30 -4.15 2 -1.15 1.10 -3.60 4.30 -5.55 7.15 -2.95 4.45 -3.45 5.45 -3.45 7.35 0 2.50 1.20 3.75 3.65 3.75 2.15 0 4.15 -1.80 8.05 -7.25 1.95 -2.75 4.50 -5.95 5.65 -7.10 6.40 -6.45 14.35 -1.40 10.65 6.80 -1.30 2.80 -7.10 11.15 -9.85 14.10 -1.20 1.25 -2 2.45 -1.80 2.60 0.30 0.35 -0.75 1.85 -1.30 1.85 -0.15 0 -1.35 -0.80 -2.70 -1.80z"/>
  <path d="M345.60 475.65 c-0.90 -0.20 -1.15 -0.50 -0.95 -1.25 0.25 -0.85 0.10 -0.95 -0.80 -0.65 -3.60 1.05 -4.95 1.20 -9.35 0.70 -10.80 -1.15 -12.35 -2.60 -11.85 -11.05 0.35 -5.65 1.45 -8.70 3.70 -10.30 2.25 -1.60 3.70 -1.75 9.25 -1.10 4.70 0.50 6.40 1.05 11.05 3.40 0.20 0.10 0.35 -0.30 0.35 -0.85 0 -0.70 0.30 -1.05 1 -1.05 1.25 0 1.25 -0.15 0 10.80 -0.55 4.85 -0.90 9 -0.75 9.25 0.20 0.25 0.95 0.45 1.70 0.45 1.65 0 2.10 0.35 1.70 1.30 -0.25 0.70 -2.45 0.85 -5.05 0.35z m-3.10 -4.05 c2.35 -1.15 2.95 -2.70 3.35 -8.30 l0.30 -4.75 -1.50 -1.45 c-1.75 -1.75 -3.75 -2.40 -9.65 -3 -7.45 -0.80 -9.15 0.45 -10.05 7.50 -1 7.70 0.10 9.55 6.35 10.35 5.80 0.75 9.30 0.65 11.20 -0.35z"/>
  <path d="M229.25 469.20 c-2.25 -1.15 -3.10 -2.05 -6.75 -7.20 -4.25 -6 -5 -7.45 -5 -10 0 -4.05 0.80 -4.90 12.85 -13.50 7.35 -5.20 8.55 -6.25 8.15 -7 -0.35 -0.65 -0.25 -1.05 0.25 -1.50 0.90 -0.75 1.55 -0.30 3.55 2.55 1.40 2 1.40 2.05 0.45 2.75 -0.85 0.65 -1.05 0.65 -1.60 -0.10 -0.75 -1 -0.20 -1.30 -10.65 6.20 -8.75 6.30 -9.45 6.90 -10.30 8.95 -0.95 2.20 -0.25 3.85 3.95 9.80 4.90 6.85 6.95 8.25 10.50 6.90 1.15 -0.45 17.30 -11.90 18.85 -13.35 0.55 -0.55 0.55 -0.80 0.10 -1.30 -0.85 -0.85 -0.75 -1.30 0.35 -1.90 0.85 -0.40 1.20 -0.15 2.75 2 1 1.40 1.80 2.70 1.80 2.95 0 0.75 -1.60 1.10 -2.30 0.50 -0.55 -0.45 -2.75 0.90 -10.15 6.25 -5.20 3.70 -10.05 7 -10.80 7.30 -1.90 0.70 -4.25 0.60 -6 -0.30z"/>
  <path d="M399.15 469 c-1.90 -1.15 -3.15 -3.40 -4.60 -8.30 -2.45 -8.30 -0.55 -10.85 10.70 -14.20 5.95 -1.80 8.05 -1.90 10.25 -0.35 2.20 1.45 3.40 3.55 4.80 8.50 1.45 4.95 1.50 6.15 0.20 8.25 -1.35 2.25 -3.35 3.35 -9.70 5.35 -6.25 2 -9.30 2.20 -11.65 0.75z m12.35 -3.25 c8.05 -2.70 8.85 -4 6.70 -10.80 -2.35 -7.40 -4.05 -8.60 -10.35 -6.95 -7.95 2 -11.45 4 -12.15 6.70 -0.35 1.40 1.80 9.15 3.10 11.20 1.65 2.60 4.70 2.55 12.70 -0.15z"/>
  <path d="M290.85 463.65 c-1.75 -0.55 -2.35 -0.95 -2.25 -1.55 0.10 -0.45 0.65 -0.90 1.20 -1 0.90 -0.15 1.55 -1.85 4.80 -12.10 3.35 -10.75 3.65 -12 2.90 -12.25 -0.60 -0.20 -0.80 -0.60 -0.65 -1.25 0.15 -0.55 0.35 -1 0.50 -1 0.15 0 4.50 1.35 9.70 3.05 9.75 3.15 11.80 4.20 13.20 7 1 1.90 0.95 4.85 -0.15 6.95 -1.05 2.05 -4.50 4 -6.90 4 -0.90 0 -4.90 -1 -8.85 -2.25 -4 -1.25 -7.45 -2.25 -7.70 -2.25 -0.30 0 -1.25 2.35 -2.15 5.25 -1.50 4.90 -1.55 5.35 -0.80 5.90 0.55 0.40 0.75 0.95 0.50 1.50 -0.35 1 -0.20 1 -3.35 0z m24.90 -10.85 c3.55 -1.50 4.25 -6.45 1.20 -9 -1.30 -1.10 -14.35 -5.80 -16.10 -5.80 -0.55 0 -4.15 10.40 -3.75 10.75 0.40 0.40 14.80 4.70 15.80 4.75 0.60 0 1.90 -0.35 2.85 -0.70z"/>
  <path d="M347 421.90 c-23.15 -1.25 -46 -17.65 -55.90 -40.10 -11.65 -26.50 -5.90 -56.85 14.65 -77 10.65 -10.45 22.45 -16.30 38.25 -19.05 11.10 -1.95 25 -0.05 36.75 4.90 23.15 9.80 39.15 31.75 41.30 56.60 2.05 23.95 -7.20 45.80 -25.55 60.20 -7.15 5.60 -12.85 8.75 -20.75 11.45 -8.65 2.95 -16 3.70 -28.75 3z m1.50 -60.90 l0 -5 -2.75 0 -2.75 0 0 2 0 2 -11.50 0 c-13 0 -12.95 0 -9.60 -3.55 2.40 -2.55 6.10 -3.85 12.75 -4.45 7.95 -0.75 10.85 -2 12.90 -5.40 1.25 -2.10 1.50 -6.15 0.45 -8.10 -2.35 -4.65 -5.70 -5.75 -17 -5.75 -10.75 0 -12.20 0.45 -16.05 5.35 l-1.50 1.85 2.60 1.35 2.60 1.30 1.60 -1.75 c2.05 -2.25 3.25 -2.45 12.35 -2.25 6.50 0.15 7.50 0.25 8.75 1.20 1.80 1.35 2.10 3.40 0.65 4.95 -1.20 1.30 -4.70 2.25 -8.15 2.25 -2.95 0 -9.90 1.75 -12.75 3.20 -4.90 2.50 -7.60 7.30 -7.60 13.50 l0 2.30 17.50 0 17.50 0 0 -5z m41 0 l0 -5 -2.75 0 -2.75 0 0 2 0 2 -11.50 0 c-13 0 -12.95 0 -9.60 -3.55 2.40 -2.55 6.10 -3.85 12.75 -4.45 7.95 -0.75 10.85 -2 12.90 -5.40 1.25 -2.10 1.50 -6.15 0.45 -8.10 -2.35 -4.65 -5.70 -5.75 -17 -5.75 -10.75 0 -12.20 0.45 -16.05 5.35 l-1.50 1.85 2.60 1.35 2.60 1.30 1.60 -1.75 c2.05 -2.25 3.35 -2.50 12.40 -2.25 6.45 0.15 7.45 0.25 8.70 1.20 0.80 0.60 1.45 1.65 1.55 2.40 0.35 2.75 -2.15 4.15 -8.55 4.75 -14.55 1.40 -20.85 6.45 -20.85 16.75 l0 2.30 17.50 0 17.50 0 0 -5z"/>
  <path d="M184.70 401.10 c-3.25 -1.55 -4.95 -4.10 -6.15 -9.05 -1.45 -6.10 -2.05 -11.20 -2.40 -20.05 -0.15 -4.25 -0.50 -8 -0.70 -8.30 -0.25 -0.30 -0.60 -2.25 -0.75 -4.30 l-0.35 -3.75 6.10 -0.45 c3.30 -0.25 6.05 -0.45 6.10 -0.45 0 0 0.20 1.75 0.35 3.85 l0.35 3.85 -1.80 0.30 c-1.35 0.25 -1.95 0.65 -2.15 1.40 -0.50 1.90 -0.30 8.35 0.45 15.35 1.05 9.60 2.20 13.10 4.50 14 1.75 0.65 3.55 -0.15 4.55 -2.10 0.95 -1.80 1.05 -5.20 0.65 -22.65 l-0.20 -9 1.50 -2.70 c2.30 -4.15 5.50 -6.05 10.20 -6.05 6.05 0.05 9.85 4.25 11.25 12.50 0.75 4.45 1.85 18.70 1.75 22.70 -0.05 2.75 0.10 4.55 0.45 4.75 0.30 0.20 0.70 1.80 0.90 3.65 l0.35 3.30 -3.20 0.30 c-1.75 0.20 -4.55 0.40 -6.20 0.45 l-3 0.10 -0.15 -3.35 c-0.15 -3.35 -0.10 -3.40 1.10 -3.40 2.75 0 3.20 -3.80 2.10 -16.75 -1.25 -13.95 -2.20 -16.50 -6.10 -16.15 -1.35 0.10 -2.15 0.55 -2.90 1.55 -1.15 1.55 -1.20 2.75 -0.75 22.85 l0.20 9.25 -1.50 3 c-2.10 4.20 -4.50 5.80 -9.10 6.10 -2.60 0.15 -3.85 -0.05 -5.45 -0.75z"/>
  <path d="M494.50 393 c-3.25 -0.25 -3.25 -0.25 -3.15 -1.75 0.05 -0.80 0.20 -3.95 0.40 -6.95 l0.35 -5.45 3.30 0.30 c1.80 0.20 3.50 0.55 3.70 0.75 0.70 0.70 5.40 -1.95 5.65 -3.15 0.30 -1.25 1.80 -21.85 1.65 -22 -3.70 -2.55 -4.80 -3.15 -5.25 -2.70 -0.35 0.35 -1.75 0.40 -3.80 0.20 l-3.25 -0.35 0.25 -3.35 c0.55 -7.25 0.90 -10.30 1.30 -10.15 0.20 0.05 1.70 0.10 3.35 0.10 l3 0 0 1.95 c0 1.90 0.05 1.95 12.55 11.85 l12.50 9.90 3.75 -0.15 3.70 -0.15 0 3.25 c0 1.75 -0.15 4.60 -0.35 6.35 l-0.30 3.10 -3.30 -0.30 c-1.80 -0.20 -3.65 -0.40 -4.05 -0.45 -0.40 0 -6.90 3.50 -14.35 7.90 -13.50 7.80 -13.65 7.95 -13.65 9.55 0 0.90 -0.15 1.70 -0.35 1.80 -0.25 0.10 -1.85 0.05 -3.65 -0.10z m28.90 -25.25 c0.25 -0.20 -8.80 -7.20 -9.50 -7.35 -0.50 -0.10 -0.75 1.50 -1.15 6.50 -0.30 3.65 -0.45 6.75 -0.35 6.85 0.15 0.15 10.40 -5.45 11 -6z"/>
  <path d="M180.75 337.80 c-3 -0.85 -5.50 -1.80 -5.50 -2.05 0 -0.30 2.50 -9.65 5.50 -20.85 3.70 -13.70 5.70 -20.40 6.15 -20.40 1.60 0 10.75 2.75 10.95 3.30 0.15 0.35 -0.15 1.90 -0.60 3.45 l-0.80 2.85 -1.85 -0.35 c-1 -0.20 -2.15 -0.40 -2.55 -0.45 -0.90 -0.05 -3.45 9 -2.75 9.65 0.40 0.35 24.50 7.05 25.35 7.05 0.20 0 0.35 -0.30 0.35 -0.70 0 -0.40 0.20 -0.90 0.50 -1.05 0.45 -0.30 5.85 0.95 6.35 1.45 0.20 0.20 -2.75 12.15 -3.15 12.75 -0.10 0.10 -1.65 -0.25 -3.45 -0.70 -3.15 -0.85 -3.30 -0.95 -3 -2.25 l0.30 -1.35 -12.40 -3.40 c-6.80 -1.85 -12.70 -3.40 -13.10 -3.45 -0.45 -0.05 -1.10 1.40 -1.85 4.20 -1.60 5.80 -1.55 5.85 0.80 6.25 1.10 0.20 2.15 0.55 2.30 0.80 0.35 0.55 -1.30 7 -1.75 6.90 -0.15 -0.05 -2.75 -0.75 -5.80 -1.65z"/>
  <path d="M491.50 334.75 c0 -0.10 -0.90 -4.30 -2 -9.30 -1.10 -5 -2 -9.20 -2 -9.25 0 -0.15 2.85 -0.95 5.30 -1.45 1.50 -0.30 1.55 -0.25 2.15 2.50 0.35 1.50 0.75 2.75 0.95 2.75 0.70 0 25.35 -5.60 25.55 -5.80 0.15 -0.15 0 -1.40 -0.30 -2.85 -0.30 -1.40 -0.50 -2.65 -0.45 -2.65 0.10 -0.10 6.80 -1.60 6.80 -1.55 0 0.05 0.90 4.15 2 9.05 1.10 4.90 2 9.20 2 9.55 0 0.45 -4.60 1.75 -6.35 1.75 -0.35 0 -0.75 -1.05 -0.95 -2.30 -0.15 -1.25 -0.60 -2.40 -1 -2.55 -0.65 -0.25 -25.05 5.05 -25.55 5.55 -0.15 0.15 0 1.30 0.30 2.60 0.35 1.25 0.50 2.40 0.35 2.55 -0.20 0.20 -5.65 1.60 -6.40 1.65 -0.25 0 -0.40 -0.10 -0.40 -0.25z"/>
  <path d="M483.75 306.70 c-1.55 -2.90 -2.75 -5.35 -2.65 -5.45 0.10 -0.05 1.30 -0.70 2.65 -1.40 l2.55 -1.25 3.35 -16.20 c1.85 -8.85 3.35 -16.45 3.35 -16.80 0 -0.50 -0.40 -0.45 -1.60 0.30 -1.65 0.95 -10.20 5.50 -14.30 7.55 l-2.10 1.10 0.75 1.45 c0.70 1.40 0.70 1.50 -0.35 2.15 -2.60 1.60 -5.05 2.90 -5.15 2.75 -0.10 -0.10 -1.50 -2.70 -3.15 -5.80 -3.40 -6.35 -3.55 -5.40 1.10 -8.05 l2 -1.15 0.75 1.05 c0.80 1 1 0.90 12.65 -5.30 10.20 -5.50 11.75 -6.45 11.35 -7.20 -0.65 -1.30 -0.70 -1.25 2.40 -2.90 2.95 -1.60 3.65 -1.85 3.65 -1.15 0 0.25 1.25 2.75 2.75 5.55 1.50 2.85 2.75 5.30 2.75 5.50 0 0.20 -1.25 0.95 -2.75 1.70 -1.85 0.90 -2.80 1.70 -3 2.45 -0.15 0.65 -1.50 7.25 -3 14.70 -1.45 7.45 -2.85 14.20 -3.05 14.95 -0.45 1.85 -0.25 1.75 9.25 -3.25 7.75 -4.10 8.05 -4.30 7.75 -5.60 -0.25 -1.25 0 -1.50 2.75 -2.85 l3 -1.55 1.70 3.15 c2.05 3.65 3.85 7.20 3.85 7.55 0 0.10 -1.30 0.90 -2.85 1.80 l-2.90 1.55 -0.85 -1.15 -0.80 -1.15 -1.95 1.05 c-1.05 0.60 -6.30 3.40 -11.65 6.20 -5.35 2.85 -9.85 5.25 -10 5.35 -0.10 0.10 0.05 0.65 0.40 1.15 0.35 0.55 0.60 1.10 0.60 1.25 0 0.25 -5.75 3.25 -6.20 3.25 -0.10 0 -1.50 -2.40 -3.05 -5.30z"/>
  <path d="M223.35 299.50 c-1.05 -0.80 -2.20 -1.55 -2.50 -1.65 -0.45 -0.15 -0.40 -0.55 0.10 -1.55 0.45 -0.80 0.55 -1.50 0.25 -1.75 -0.35 -0.30 -4.75 -3.40 -20.40 -14.20 l-1.45 -1 -0.85 1.15 -0.85 1.10 -2.55 -1.85 c-1.45 -1 -2.60 -1.95 -2.60 -2.10 0 -0.10 0.65 -1.05 1.45 -2.05 0.75 -1 6.65 -9.40 13.05 -18.60 6.40 -9.20 11.70 -16.80 11.75 -16.85 0.15 -0.20 8.75 5.85 8.75 6.15 0 0.15 -0.90 1.45 -2 3 l-2.05 2.70 -1.70 -1.25 -1.65 -1.30 -1.25 1.65 c-2.65 3.60 -15.40 22.05 -15.25 22.10 0.10 0.05 2 1.40 4.25 2.95 2.25 1.55 4.20 2.85 4.30 2.85 0.15 0 4.35 -5.95 9.40 -13.25 5.05 -7.25 9.35 -13.25 9.60 -13.25 0.20 0 1.60 0.80 3.10 1.80 l2.75 1.85 -2.70 3.80 c-1.45 2.10 -5.55 7.95 -9.10 13.05 -3.60 5.10 -6.65 9.50 -6.85 9.80 -0.20 0.35 1.15 1.55 3.55 3.15 2.15 1.40 4.05 2.55 4.20 2.55 0.20 0 4 -5.20 8.45 -11.60 l8.15 -11.55 -1.20 -0.80 c-3.25 -2.15 -3.20 -2 -1.20 -5.05 1 -1.50 1.90 -2.85 2 -2.95 0.10 -0.10 2.45 1.45 5.20 3.45 3.50 2.50 4.90 3.75 4.60 4.15 -0.25 0.35 -6.15 8.75 -13.05 18.75 -6.95 9.95 -12.90 18.10 -13.20 18.05 -0.35 0 -1.45 -0.65 -2.50 -1.45z"/>
  <path d="M456.40 263.40 c-2.70 -2.20 -4.90 -4.30 -4.90 -4.60 0 -0.35 1.10 -1.80 2.50 -3.30 1.95 -2.10 2.60 -3.20 2.95 -5.15 l0.45 -2.45 -8.75 -7.25 -8.70 -7.30 -2.75 0.95 c-1.50 0.50 -2.70 1.20 -2.70 1.55 0 1.10 -3.70 5.60 -4.40 5.40 -1.05 -0.35 -10.05 -7.95 -10.05 -8.50 0 -0.25 1 -1.60 2.20 -3 l2.20 -2.50 1.25 1.20 1.25 1.20 15.55 -4.45 c8.50 -2.40 15.50 -4.65 15.50 -4.95 0 -0.30 1 -1.65 2.20 -3 1.65 -1.90 2.30 -2.35 2.85 -1.95 2.95 2.25 8.45 6.90 8.45 7.15 0 0.55 -4.10 5.30 -4.50 5.20 -0.45 -0.15 -0.70 1.50 -2.25 18.45 l-1.30 13.90 1.35 1.20 1.40 1.15 -2.15 2.60 c-1.20 1.40 -2.30 2.55 -2.45 2.50 -0.20 0 -2.55 -1.80 -5.20 -4.05z m3.10 -29.95 c0.35 -3.30 0.50 -6.10 0.35 -6.25 -0.35 -0.40 -11.85 3 -11.70 3.45 0.15 0.50 9.95 8.80 10.40 8.85 0.15 0 0.60 -2.70 0.95 -6.05z"/>
  <path d="M251.20 257.15 c-1.40 -2.15 -1.65 -2.90 -1.10 -3.20 2.35 -1.35 2.25 -0.75 2.60 -17.80 0.15 -10.10 0.10 -16.15 -0.20 -16.15 -0.50 0 -4 -4.95 -4 -5.60 0 -0.40 10.05 -7.05 10.20 -6.80 0.05 0.10 0.75 1.15 1.55 2.40 0.85 1.25 1.60 2.70 1.75 3.20 0.20 0.70 3.95 2.45 14.70 6.90 7.95 3.25 14.75 5.90 15.15 5.90 0.35 0 1.25 -0.35 1.95 -0.80 0.65 -0.45 1.30 -0.75 1.40 -0.65 0.25 0.35 3.10 4.70 3.45 5.25 0.30 0.55 -10.10 7.70 -11.15 7.70 -0.55 0 -3.50 -4.70 -3.50 -5.60 0 -0.45 -1.10 -1.25 -2.60 -1.90 -3.15 -1.35 -2.25 -1.75 -13.65 5.90 l-8 5.35 0.20 2.75 c0.10 1.55 0.45 2.90 0.80 3.10 0.65 0.40 3.75 4.95 3.75 5.55 0 0.45 -10.40 7.35 -11 7.35 -0.25 0 -1.30 -1.25 -2.30 -2.85z m14.30 -28.25 c3 -2 5.45 -3.75 5.45 -3.90 0 -0.25 -10.90 -5 -11.50 -5 -0.15 0 -0.30 2.80 -0.40 6.25 -0.05 4.20 0.05 6.25 0.40 6.25 0.30 0 3 -1.65 6.05 -3.60z"/>
  <path d="M412 231.25 c-2.35 -0.65 -4.85 -1.40 -5.60 -1.70 l-1.35 -0.50 0.90 -3.15 c0.75 -2.90 0.95 -3.15 2.15 -3.05 1.55 0.10 1.25 0.85 4.65 -11.50 1.30 -4.65 2.25 -8.50 2.15 -8.60 -0.15 -0.15 -3.90 1.45 -8.45 3.55 -4.50 2.10 -9.60 4.45 -11.35 5.20 l-3.10 1.45 -7.05 -10.50 c-3.85 -5.80 -7.10 -10.45 -7.20 -10.35 -0.25 0.25 -5.75 19.70 -5.75 20.35 0 0.30 0.40 0.55 0.90 0.55 0.50 0 1.05 0.15 1.20 0.30 0.45 0.40 -1.35 6.35 -1.95 6.55 -0.55 0.20 -10.55 -2.60 -11 -3.05 -0.20 -0.15 0.10 -1.75 0.55 -3.50 0.80 -2.95 1 -3.20 2.15 -3.15 1.25 0.10 1.35 -0.15 4.90 -12.75 2.05 -7.40 3.35 -12.90 3.05 -12.90 -1.60 -0.05 -1.80 -0.80 -0.85 -4 0.50 -1.80 1.15 -3.20 1.35 -3.20 0.65 0.10 10.90 2.85 11.10 3 0.10 0.05 -0.10 1.35 -0.40 2.80 l-0.60 2.70 6.10 8.85 c3.35 4.85 6.15 8.85 6.25 8.85 0.45 0 19.55 -8.60 20.05 -9.05 0.35 -0.25 0.85 -1.45 1.15 -2.65 l0.55 -2.20 4.35 1.20 c2.45 0.70 5.05 1.40 5.80 1.55 1.55 0.30 1.60 0.55 0.30 5.30 -0.45 1.80 -0.60 1.90 -1.95 1.60 -1.10 -0.25 -1.45 -0.10 -1.70 0.60 -2.55 8.55 -6.75 24.80 -6.55 25.15 0.15 0.30 0.65 0.50 1.05 0.50 0.40 0 0.70 0.25 0.70 0.60 0 1.05 -1.65 6.40 -1.95 6.35 -0.15 0 -2.20 -0.55 -4.55 -1.20z"/>
  <path d="M300.35 226.45 c-0.15 -0.65 -0.45 -2.25 -0.60 -3.55 -0.35 -2.20 -0.30 -2.40 0.70 -2.40 0.80 0 1.05 -0.30 1.05 -1.25 0 -1 -2.40 -16.45 -3.75 -24.15 -0.25 -1.40 -0.50 -1.65 -1.30 -1.45 -1.20 0.30 -1.65 -0.65 -2.15 -4.45 l-0.35 -2.50 5.85 -0.90 c6.45 -0.95 6.65 -0.90 6.70 1.95 0 0.85 0.20 1.75 0.40 2.10 0.45 0.75 18.05 11.15 18.80 11.10 0.30 0 3.75 -3.75 7.70 -8.25 l7.15 -8.25 -0.45 -2.50 c-0.35 -1.80 -0.30 -2.60 0.10 -2.70 0.70 -0.20 10.60 -1.75 11.25 -1.75 0.25 0 0.60 1.35 0.80 3 0.45 3.90 0.50 3.70 -0.85 4.05 -1.40 0.30 -1.45 -0.40 0.85 13.95 2.20 13.75 2.05 13.15 3.30 12.85 0.70 -0.20 1.10 0.05 1.40 0.80 0.65 1.70 1.05 5.80 0.65 6.05 -0.95 0.60 -11.15 1.95 -11.60 1.50 -0.25 -0.25 -0.60 -1.85 -0.80 -3.55 -0.30 -2.95 -0.30 -3.05 0.85 -3.25 0.85 -0.10 1.15 -0.45 1.10 -1.15 -0.30 -2.15 -3.20 -19.95 -3.30 -20.05 -0.05 -0.05 -3.80 4.20 -8.30 9.50 l-8.20 9.65 -10.75 -6.45 c-5.90 -3.55 -10.80 -6.35 -10.90 -6.25 -0.15 0.10 0.50 4.80 1.40 10.40 1.65 10.10 1.70 10.20 2.90 10.20 1.45 0 1.80 0.65 2.25 4.30 l0.35 2.75 -4.20 0.60 c-2.25 0.35 -4.95 0.75 -5.95 0.90 -1.60 0.25 -1.85 0.20 -2.10 -0.85z"/>
 </g>
</svg>